<svg width="114" height="114" viewBox="0 0 114 114" fill="none" xmlns="http://www.w3.org/2000/svg">
<circle cx="56.9061" cy="57.2822" r="56.3534" fill="#030211"/>
<mask id="path-2-inside-1_1_3263" fill="white">
<path d="M88.6834 83.7493C81.9117 91.7402 72.3652 96.8704 61.9643 98.1079C51.5633 99.3453 41.0796 96.5981 32.6221 90.419C24.1645 84.2399 18.3607 75.0873 16.3781 64.8023C14.3954 54.5174 16.3811 43.8632 21.9356 34.9829L22.5889 35.3915C17.1376 44.1066 15.1889 54.5628 17.1347 64.6565C19.0804 74.7502 24.7764 83.7326 33.0766 89.7969C41.3769 95.8611 51.6657 98.5572 61.8732 97.3427C72.0808 96.1283 81.4498 91.0935 88.0956 83.2511L88.6834 83.7493Z"/>
</mask>
<path d="M88.6834 83.7493C81.9117 91.7402 72.3652 96.8704 61.9643 98.1079C51.5633 99.3453 41.0796 96.5981 32.6221 90.419C24.1645 84.2399 18.3607 75.0873 16.3781 64.8023C14.3954 54.5174 16.3811 43.8632 21.9356 34.9829L22.5889 35.3915C17.1376 44.1066 15.1889 54.5628 17.1347 64.6565C19.0804 74.7502 24.7764 83.7326 33.0766 89.7969C41.3769 95.8611 51.6657 98.5572 61.8732 97.3427C72.0808 96.1283 81.4498 91.0935 88.0956 83.2511L88.6834 83.7493Z" fill="#030211" stroke="white" stroke-width="2" mask="url(#path-2-inside-1_1_3263)"/>
<path d="M35.6785 30.0166C35.3258 30.2988 34.973 30.2988 34.6203 30.0871L26.0141 25.2902C25.7319 25.1491 25.5908 24.9375 25.5908 24.7259C25.5908 24.5142 25.7319 24.3026 25.9435 24.1615C26.1552 24.0204 26.2963 23.9499 26.4373 23.9499C26.5784 23.9499 26.7901 24.0204 26.9311 24.091L34.5498 28.3941L32.4335 19.9289C32.3629 19.7173 32.3629 19.5762 32.4335 19.3646C32.504 19.153 32.5746 19.0824 32.7862 18.9413C32.9978 18.8003 33.2095 18.7297 33.4211 18.8003C33.6327 18.8708 33.7738 19.0824 33.8444 19.3646L36.0312 29.029C36.1017 29.2406 36.1017 29.4523 36.0312 29.5933C35.9606 29.7344 35.8196 29.8755 35.6785 30.0166Z" fill="white"/>
<path d="M41.3222 26.5594C40.8284 26.771 40.5462 26.6299 40.2641 26.2066L36.3137 18.0237C36.102 17.5299 36.1726 17.1771 36.6664 16.9655C37.1602 16.7539 37.4423 16.895 37.7245 17.3182L41.6749 25.5012C41.8866 25.995 41.816 26.3477 41.3222 26.5594Z" fill="white"/>
<path d="M44.5673 24.9375C44.003 25.0786 43.7208 24.9375 43.5092 24.3732L41.0401 15.908C40.8991 15.3437 41.0401 15.0615 41.6045 14.8499L46.8247 13.3685C47.2479 13.2274 47.4596 13.3685 47.6006 13.7917C47.7417 14.215 47.6006 14.4971 47.1774 14.5677L42.5921 15.908L43.5092 19.0824L47.7417 17.8127C48.165 17.6716 48.3766 17.8127 48.5177 18.2359C48.6588 18.6592 48.5177 18.8708 48.0944 19.0119L43.8619 20.2817L44.8495 23.5972L49.4348 22.2569C49.858 22.1158 50.0696 22.2569 50.2107 22.6801C50.3518 23.1034 50.2107 23.315 49.7875 23.4561L44.5673 24.9375Z" fill="white"/>
<path d="M54.8667 22.8918C54.4434 22.8918 54.1613 22.6097 54.0202 22.1864L51.269 12.9453C51.1985 12.6631 51.1984 12.4515 51.3395 12.3104C51.4806 12.1693 51.6923 12.0988 51.9744 12.0988C52.1861 12.0988 52.3271 12.1693 52.4682 12.2398C52.6093 12.3104 52.6799 12.522 52.7504 12.7336L55.0078 20.5639L58.0411 13.0158C58.2528 12.5926 58.5349 12.3809 58.8876 12.3809C59.0993 12.3809 59.2404 12.4515 59.3109 12.5926C59.452 12.7336 59.5225 12.8747 59.5931 13.0864L61.8504 20.9872L64.9543 13.3685C65.0249 13.1569 65.166 13.0158 65.2365 12.9453C65.3776 12.8042 65.5187 12.8042 65.7303 12.8042C66.0125 12.8042 66.1536 12.9453 66.2947 13.0864C66.4357 13.298 66.4357 13.5096 66.2947 13.7212L62.6264 22.6802C62.5559 22.8918 62.4148 23.0329 62.2737 23.174C62.1326 23.2445 61.9915 23.3151 61.7799 23.3151C61.5683 23.3151 61.3566 23.2446 61.2861 23.1035C61.2156 22.9624 61.0745 22.8213 61.0039 22.6097L58.7466 14.8499L55.7132 22.3275C55.6427 22.5391 55.5016 22.6802 55.3605 22.8213C55.2194 22.8918 55.0783 22.8918 54.8667 22.8918Z" fill="white"/>
<path d="M70.8089 25.9965C70.3856 25.7143 70.2445 25.3616 70.5267 24.9383L74.8298 17.0375C75.112 16.6142 75.4647 16.4732 75.888 16.7553L79.0624 18.4484C80.05 19.0127 80.6849 19.6476 80.9671 20.4236C81.2492 21.1995 81.1081 22.046 80.6143 22.8926C80.1205 23.8096 79.4856 24.3034 78.6391 24.5151C77.8632 24.7267 76.9461 24.5151 75.9585 24.0213L73.4895 22.6809L71.867 25.6437C71.6554 26.1375 71.3027 26.2081 70.8089 25.9965ZM74.1244 21.6228L76.3818 22.8926C77.7221 23.598 78.6391 23.3864 79.274 22.2577C79.9089 21.129 79.5562 20.2119 78.2159 19.436L75.9585 18.1662L74.1244 21.6228Z" fill="white"/>
<path d="M78.3573 30.5815C78.0046 30.2288 78.0046 29.8761 78.3573 29.4529L84.5651 22.9629C84.9178 22.6102 85.2705 22.6102 85.6938 22.9629L88.2333 25.4319C89.0798 26.2079 89.5031 26.9839 89.5736 27.8304C89.6442 28.6769 89.362 29.3823 88.6566 30.0877C88.0922 30.6521 87.5279 30.9343 86.893 31.0048C86.2581 31.0753 85.6232 30.9343 84.9178 30.511C85.1294 30.9343 85.2 31.4986 84.9884 32.1335L84.2829 34.7436C84.2124 35.0258 84.0713 35.2374 83.8597 35.3079C83.648 35.3785 83.4364 35.3079 83.2248 35.0963C83.0837 34.9552 82.9426 34.8141 82.9426 34.6025C82.8721 34.4614 82.9426 34.2498 83.0131 34.0382L83.8597 30.8637C84.0008 30.4405 84.0008 30.0877 83.8597 29.8056C83.7186 29.5234 83.5775 29.2412 83.2248 28.9591L82.0255 27.8304L79.486 30.4405C79.0627 30.9343 78.71 30.9343 78.3573 30.5815ZM82.731 27.1249L84.5651 28.8885C85.6938 29.9467 86.6108 30.0172 87.5279 29.1001C88.3744 28.1831 88.3039 27.1955 87.1752 26.2079L85.3411 24.4443L82.731 27.1249Z" fill="white"/>
<path d="M86.6107 40.5283C86.1169 39.6818 85.9053 38.8353 85.9053 37.9182C85.9053 37.0717 86.1874 36.2958 86.6812 35.5198C87.175 34.7438 87.8805 34.1089 88.8681 33.6151C89.8557 33.0508 90.7727 32.7686 91.6193 32.6981C92.5363 32.6275 93.3123 32.8391 94.0883 33.2624C94.7937 33.6857 95.4286 34.3205 95.9224 35.1671C96.4162 36.0136 96.6278 36.8601 96.6278 37.7066C96.6278 38.5531 96.3456 39.3291 95.8518 40.1051C95.358 40.8811 94.6526 41.5159 93.665 42.0097C92.7479 42.5741 91.7603 42.8563 90.9138 42.9268C89.9968 42.9973 89.2208 42.7857 88.4448 42.3625C87.6688 42.0097 87.1045 41.3748 86.6107 40.5283ZM87.7394 39.8934C88.2332 40.8105 88.9386 41.3043 89.8557 41.4454C90.7727 41.5865 91.7603 41.3748 92.889 40.74C94.0177 40.1051 94.7231 39.3996 95.0053 38.5531C95.358 37.7066 95.217 36.8601 94.7231 35.943C94.2293 35.026 93.5239 34.5322 92.6069 34.3911C91.6898 34.25 90.7022 34.4616 89.5735 35.0965C88.4448 35.7314 87.7394 36.4368 87.4572 37.3539C87.175 38.0593 87.2456 38.9764 87.7394 39.8934Z" fill="white"/>
<path d="M88.9386 45.1826C88.8681 44.9709 88.8681 44.7593 88.9386 44.6182C89.0092 44.4771 89.1503 44.336 89.3619 44.2655C89.503 44.195 89.6441 44.195 89.7852 44.2655C89.9263 44.336 89.9968 44.4066 90.0673 44.6182L90.2084 45.0415C90.5611 45.9585 91.2666 46.2407 92.2542 45.888L98.8147 43.7717C99.3085 43.6306 99.5906 43.7717 99.8023 44.2655C99.9434 44.7593 99.8023 45.112 99.3085 45.2531L92.748 47.3694C91.9015 47.6516 91.1255 47.6516 90.5611 47.3694C89.9263 47.0872 89.503 46.5229 89.1503 45.6764L88.9386 45.1826Z" fill="white"/>
<path d="M90.7025 50.9681C90.632 50.4038 90.8436 50.1216 91.408 50.0511L100.155 48.9224C100.72 48.8519 101.002 49.0635 101.072 49.6278L101.778 54.9891C101.848 55.4123 101.637 55.624 101.284 55.6945C100.861 55.7651 100.649 55.5534 100.579 55.1302L100.014 50.4038L96.6282 50.8976L97.1925 55.2713C97.263 55.6945 97.0514 55.9062 96.6282 55.9767C96.2049 56.0472 95.9933 55.8356 95.9227 55.4124L95.3584 51.0387L91.9723 51.4619L92.5367 56.1883C92.6072 56.6116 92.3956 56.8232 91.9723 56.8938C91.5491 56.9643 91.3374 56.7527 91.2669 56.3294L90.7025 50.9681Z" fill="white"/>
<path d="M90.7729 62.8201C90.9139 61.7619 91.1961 60.9154 91.7605 60.21C92.2543 59.5046 92.9597 59.0108 93.8062 58.7286C94.6527 58.4464 95.6403 58.3759 96.6985 58.517C97.7566 58.658 98.6737 58.9402 99.4497 59.434C100.226 59.9278 100.719 60.5627 101.072 61.4092C101.425 62.1852 101.495 63.1023 101.354 64.1604C101.284 64.7247 101.143 65.2891 100.931 65.7829C100.719 66.2767 100.437 66.6999 100.085 67.1232C99.9435 67.3348 99.7318 67.4054 99.5202 67.4054C99.3086 67.4054 99.1675 67.3348 99.0264 67.2643C98.8853 67.1937 98.8148 66.9821 98.7442 66.841C98.7442 66.6294 98.8148 66.4883 98.9559 66.2767C99.238 65.9945 99.4497 65.6418 99.6613 65.2891C99.8024 64.9364 99.9435 64.5131 100.014 64.0898C100.155 62.9612 99.9435 62.0441 99.3086 61.4092C98.6737 60.7038 97.7566 60.3511 96.4868 60.1394C95.2171 59.9984 94.2295 60.1394 93.4535 60.6332C92.6775 61.127 92.2543 61.9736 92.1132 63.0317C92.0426 63.455 92.0426 63.8782 92.1132 64.3015C92.1837 64.7247 92.3248 65.0775 92.5364 65.5007C92.6775 65.7123 92.6775 65.924 92.607 66.0651C92.5364 66.2061 92.4659 66.3472 92.2543 66.4178C92.0426 66.4883 91.9016 66.4883 91.7605 66.4178C91.6194 66.3472 91.4078 66.2767 91.3372 66.0651C91.055 65.6418 90.9139 65.0775 90.7729 64.5131C90.6318 63.9488 90.7023 63.455 90.7729 62.8201Z" fill="white"/>
<path d="M88.7269 70.4381C88.9385 69.9443 89.2207 69.8032 89.7145 70.0148L97.6153 73.1187L98.744 70.2264C98.8851 69.8032 99.1673 69.6621 99.5905 69.8737C100.014 70.0148 100.084 70.297 99.9433 70.7202L97.051 77.9862C96.9099 78.4094 96.6277 78.5505 96.2045 78.4094C95.7812 78.2683 95.7107 77.9862 95.8518 77.5629L96.9804 74.6706L89.0796 71.5668C88.7269 71.214 88.5858 70.8613 88.7269 70.4381Z" fill="white"/>
<path d="M67.4016 56.2356C67.5916 56.4275 67.6983 56.6866 67.6983 56.9567C67.6983 57.2268 67.5916 57.486 67.4016 57.6778L58.2927 66.7867C58.0984 66.9724 57.8403 67.0766 57.5716 67.0777C57.4372 67.0771 57.3042 67.0514 57.1794 67.0018C56.9952 66.9244 56.838 66.7942 56.7277 66.6276C56.6174 66.461 56.5588 66.2654 56.5595 66.0656V57.9688H47.4506C47.1822 57.9688 46.9247 57.8622 46.7349 57.6724C46.5451 57.4826 46.4385 57.2252 46.4385 56.9567C46.4385 56.6883 46.5451 56.4309 46.7349 56.2411C46.9247 56.0513 47.1822 55.9446 47.4506 55.9446H56.5595V47.8478C56.5588 47.648 56.6174 47.4525 56.7277 47.2859C56.838 47.1193 56.9952 46.9891 57.1794 46.9116C57.3663 46.8387 57.5701 46.8202 57.7671 46.8583C57.9641 46.8963 58.1464 46.9894 58.2927 47.1267L67.4016 56.2356Z" fill="white"/>
</svg>
